External Loads File
version=1
nRows=85
nColumns=13
Range=5.000000e-03-10 seconds
endheader
time 	forceRightX 	forceRightY 	forceRightZ 	pointRightX 	pointRightY 	pointRightZ 	forceLeftX 	forceLeftY 	forceLeftZ 	pointLeftX 	pointLeftY 	pointLeftZ 		
2.505000 -46.410149 585.041912 -0.000000 0.467609 0.448412 -0.194303 3.344350 -74.846158 -0.000000 0.214189 0.205485 -0.442360
2.510000 -49.123839 600.718692 -0.000000 0.472468 0.442125 -0.194126 -1.311997 -87.207951 -0.000000 0.210715 0.210653 -0.442423
2.515000 -52.885046 616.973041 -0.000000 0.477029 0.436536 -0.193568 -5.436082 -96.802552 -0.000000 0.207328 0.215787 -0.442230
2.520000 -57.869675 633.621893 -0.000000 0.481432 0.431713 -0.193214 -8.886116 -103.478578 -0.000000 0.204159 0.221065 -0.442109
2.525000 -61.622751 650.684758 -0.000000 0.485711 0.425857 -0.193136 -11.905091 -107.250780 -0.000000 0.201171 0.226340 -0.441989
2.530000 -64.988373 667.891526 -0.000000 0.489876 0.419720 -0.193017 -14.173602 -108.426886 -0.000000 0.198265 0.231714 -0.441822
2.535000 -68.547562 685.000438 -0.000000 0.493741 0.413491 -0.192873 -15.432494 -107.547562 -0.000000 0.195625 0.237183 -0.441895
2.540000 -72.338848 701.842649 -0.000000 0.497437 0.407264 -0.192907 -15.601994 -105.257566 -0.000000 0.193085 0.242760 -0.441954
2.545000 -76.166923 718.314512 -0.000000 0.500924 0.400919 -0.193010 -14.770997 -102.178777 -0.000000 0.190778 0.248537 -0.442066
2.550000 -80.780078 734.265091 -0.000000 0.504256 0.394555 -0.193277 -12.999694 -98.817652 -0.000000 0.188633 0.254207 -0.442093
2.555000 -85.004695 749.790608 -0.000000 0.507521 0.387850 -0.193653 -10.662147 -95.462979 -0.000000 0.186790 0.260093 -0.442148
2.560000 -90.319312 764.713676 -0.000000 0.510563 0.381379 -0.194089 -7.800203 -92.303832 -0.000000 0.185099 0.265969 -0.442151
2.565000 -94.670119 779.274364 -0.000000 0.513406 0.374440 -0.194483 -4.875761 -89.401103 -0.000000 0.183773 0.272069 -0.442299
2.570000 -99.258077 793.349555 -0.000000 0.516090 0.367630 -0.194786 -1.902854 -86.831965 -0.000000 0.182681 0.278261 -0.442521
2.575000 -103.774612 807.021170 -0.000000 0.518480 0.360799 -0.195181 0.910510 -84.671432 -0.000000 0.181797 0.284466 -0.442793
2.580000 -106.895894 820.556671 -0.000000 0.520670 0.353804 -0.195244 3.219368 -83.015703 -0.000000 0.181186 0.290994 -0.442921
2.585000 -110.098023 833.918837 -0.000000 0.522564 0.346932 -0.195362 4.964600 -81.949322 -0.000000 0.180746 0.297496 -0.442967
2.590000 -111.920409 847.469089 -0.000000 0.524198 0.339831 -0.195467 5.832070 -81.535100 -0.000000 0.180696 0.304192 -0.443083
2.595000 -112.879903 861.262069 -0.000000 0.525571 0.332715 -0.195506 5.814347 -81.768159 -0.000000 0.180763 0.311015 -0.443088
2.600000 -113.095725 875.345264 -0.000000 0.526583 0.325610 -0.195513 5.005626 -82.575535 -0.000000 0.181155 0.317909 -0.443089
2.605000 -112.211124 889.809739 -0.000000 0.527544 0.318464 -0.195121 3.533149 -83.831053 -0.000000 0.181871 0.324901 -0.443064
2.610000 -110.553175 904.656187 -0.000000 0.527780 0.311265 -0.195482 1.573588 -85.371825 -0.000000 0.182838 0.331807 -0.443151
2.615000 -105.666786 920.178324 -0.000000 0.528335 0.303309 -0.194661 -0.994705 -87.033806 -0.000000 0.184069 0.338826 -0.443237
2.620000 -102.597043 935.704593 -0.000000 0.527890 0.296252 -0.195694 -3.613755 -88.679372 -0.000000 0.185541 0.345700 -0.443229
2.625000 -98.372596 951.420937 -0.000000 0.527404 0.289102 -0.195716 -6.499074 -90.202827 -0.000000 0.187325 0.352567 -0.443255
2.630000 -93.424413 967.050863 -0.000000 0.526424 0.282000 -0.195652 -9.504709 -91.526147 -0.000000 0.189393 0.359368 -0.443348
2.635000 -87.755933 982.343279 -0.000000 0.525215 0.274960 -0.195696 -12.481075 -92.605407 -0.000000 0.191650 0.366152 -0.443345
2.640000 -81.032146 997.067053 -0.000000 0.523572 0.267984 -0.195710 -15.334089 -93.420501 -0.000000 0.194266 0.372949 -0.443465
2.645000 -73.681586 1010.920532 -0.000000 0.521568 0.261041 -0.195737 -17.934531 -93.988385 -0.000000 0.197049 0.379664 -0.443517
2.650000 -65.958576 1023.621561 -0.000000 0.519112 0.254281 -0.195848 -20.195314 -94.349908 -0.000000 0.200134 0.386262 -0.443704
2.655000 -57.583989 1034.910212 -0.000000 0.516214 0.247626 -0.195974 -22.129518 -94.534689 -0.000000 0.203401 0.392853 -0.443755
2.660000 -48.520108 1044.464726 -0.000000 0.513031 0.241037 -0.196036 -23.768555 -94.563060 -0.000000 0.207000 0.399349 -0.443733
2.665000 -39.784083 1051.864036 -0.000000 0.509419 0.234758 -0.196125 -25.071242 -94.469683 -0.000000 0.210666 0.405783 -0.443799
2.670000 -30.235235 1056.742132 -0.000000 0.505358 0.228599 -0.196395 -26.242666 -94.207062 -0.000000 0.214699 0.412154 -0.443746
2.675000 -21.118569 1058.616611 -0.000000 0.501098 0.222667 -0.196777 -27.319710 -93.739524 -0.000000 0.218868 0.418385 -0.443727
2.680000 -11.384910 1057.029661 -0.000000 0.496353 0.216909 -0.197278 -28.528460 -92.945979 -0.000000 0.223258 0.424545 -0.443650
2.685000 -0.443203 1051.418747 -0.000000 0.491206 0.211118 -0.198643 -29.986656 -91.698917 -0.000000 0.227935 0.430552 -0.443696
2.690000 9.803630 1041.171215 -0.000000 0.485741 0.205637 -0.198859 -31.499373 -89.956989 -0.000000 0.232652 0.436321 -0.443570
2.695000 20.497606 1025.723780 -0.000000 0.479941 0.200577 -0.199230 -33.045948 -87.656469 -0.000000 0.237687 0.441950 -0.443504
2.700000 31.439048 1004.651559 -0.000000 0.473854 0.195616 -0.199805 -34.461188 -84.829603 -0.000000 0.242777 0.447354 -0.443471
2.705000 42.353567 977.734826 -0.000000 0.467564 0.190883 -0.199910 -35.627918 -81.510198 -0.000000 0.248171 0.452536 -0.443575
2.710000 52.955435 944.916950 -0.000000 0.461120 0.186478 -0.200572 -36.518871 -77.679956 -0.000000 0.253639 0.457472 -0.443055
2.715000 62.236609 906.279947 -0.000000 0.454680 0.182276 -0.200963 -37.134809 -73.290413 -0.000000 0.258827 0.462169 -0.442787
2.720000 72.705974 861.699530 -0.000000 0.447528 0.178399 -0.200852 -37.808262 -68.138938 -0.000000 0.264957 0.466596 -0.442913
2.725000 82.208773 811.410365 -0.000000 0.440271 0.174845 -0.200576 -38.481867 -62.283935 -0.000000 0.271245 0.470822 -0.443458
2.730000 89.841210 755.752835 -0.000000 0.432873 0.171530 -0.200363 -39.164971 -55.845971 -0.000000 0.277257 0.474819 -0.443769
2.735000 95.594014 695.189267 -0.000000 0.425187 0.168440 -0.200435 -39.896495 -48.950203 -0.000000 0.283388 0.478081 -0.443377
2.740000 99.433519 630.409726 -0.000000 0.417310 0.165742 -0.200219 -40.670312 -41.696373 -0.000000 0.289523 0.481467 -0.443430
2.745000 101.595423 562.322745 -0.000000 0.409195 0.163239 -0.199993 -41.462408 -34.117526 -0.000000 0.295869 0.484466 -0.443371
2.750000 101.758160 492.221140 -0.000000 0.400563 0.161108 -0.198999 -42.198333 -26.223080 -0.000000 0.302178 0.487337 -0.443425
2.755000 99.538180 421.746765 -0.000000 0.391847 0.159300 -0.199020 -42.791530 -17.984674 -0.000000 0.308440 0.489871 -0.443493
2.760000 95.797294 352.547421 -0.000000 0.382805 0.157744 -0.199250 -43.185427 -9.245058 -0.000000 0.314752 0.492013 -0.443553
2.765000 90.864800 286.540032 -0.000000 0.373510 0.156531 -0.199141 -43.278153 0.112699 -0.000000 0.320938 0.493817 -0.443698
2.770000 85.668999 225.452638 -0.000000 0.363945 0.155716 -0.199003 -42.995560 10.290736 -0.000000 0.327334 0.495291 -0.443632
2.775000 80.729687 170.906489 -0.000000 0.354366 0.155339 -0.198922 -42.303843 21.410088 -0.000000 0.333389 0.496526 -0.443941
2.780000 77.175682 123.788000 -0.000000 0.344836 0.155308 -0.198669 -41.158332 33.714787 -0.000000 0.339685 0.497245 -0.444056
2.785000 75.573443 84.438412 -0.000000 0.334906 0.155677 -0.198712 -39.521695 47.407343 -0.000000 0.345885 0.497548 -0.444178
2.790000 76.147775 52.459403 -0.000000 0.324953 0.156417 -0.198577 -37.353704 62.706844 -0.000000 0.352061 0.497147 -0.444299
2.795000 78.651782 26.869366 -0.000000 0.315089 0.157668 -0.197922 -34.624624 79.857576 -0.000000 0.358134 0.496587 -0.444401
2.800000 82.443932 6.364512 -0.000000 0.305386 0.159280 -0.197769 -31.290402 99.175367 -0.000000 0.364032 0.496117 -0.444531
2.805000 86.625021 -10.449835 -0.000000 0.295685 0.161359 -0.197451 -27.168171 121.018358 -0.000000 0.369783 0.494957 -0.444643
2.810000 90.243507 -24.622072 -0.000000 0.286046 0.163724 -0.197257 -22.222861 145.603431 -0.000000 0.375275 0.493385 -0.444904
2.815000 92.496439 -37.060004 -0.000000 0.276352 0.166435 -0.196848 -16.247301 173.027478 -0.000000 0.380616 0.491446 -0.445116
2.820000 92.927109 -48.209259 -0.000000 0.266917 0.169346 -0.196019 -9.503327 203.122447 -0.000000 0.385766 0.489060 -0.445390
2.825000 91.345492 -58.454043 -0.000000 0.257786 0.172617 -0.195492 -2.235001 235.521827 -0.000000 0.390721 0.486326 -0.445581
2.830000 87.811907 -68.047496 -0.000000 0.248967 0.176051 -0.195003 5.163654 269.634767 -0.000000 0.395491 0.483098 -0.445879
2.835000 82.510226 -77.242819 -0.000000 0.240296 0.179756 -0.194334 12.420020 304.652687 -0.000000 0.400334 0.479601 -0.446181
2.840000 75.806443 -86.164919 -0.000000 0.231978 0.183720 -0.193718 18.823078 339.643119 -0.000000 0.405046 0.475803 -0.446306
2.845000 68.016041 -95.032369 -0.000000 0.224006 0.187785 -0.192896 23.904868 373.666479 -0.000000 0.409781 0.471620 -0.446559
2.850000 59.397262 -104.064994 -0.000000 0.216359 0.192043 -0.191521 27.347131 405.860642 -0.000000 0.414558 0.467029 -0.446914
2.855000 50.118190 -113.453476 -0.000000 0.209157 0.196572 -0.190236 29.000508 435.532487 -0.000000 0.419463 0.462090 -0.447247
2.860000 40.363101 -123.276378 -0.000000 0.202252 0.201233 -0.188891 28.413702 462.283894 -0.000000 0.424348 0.456915 -0.447263
2.865000 30.001391 -133.564231 -0.000000 0.195822 0.206253 -0.187729 26.150586 485.932273 -0.000000 0.429467 0.451511 -0.447160
2.870000 19.228028 -144.032825 -0.000000 0.189490 0.211487 -0.186589 21.579523 506.587067 -0.000000 0.434179 0.445860 -0.447027
2.875000 7.864555 -154.275082 -0.000000 0.183228 0.216730 -0.185547 15.672897 524.446797 -0.000000 0.439063 0.439784 -0.447144
2.880000 -3.843869 -163.676887 -0.000000 0.177350 0.222343 -0.185465 8.313508 539.909506 -0.000000 0.443762 0.433710 -0.446777
2.885000 -15.653910 -171.622044 -0.000000 0.171780 0.228159 -0.185436 -0.133844 553.496749 -0.000000 0.448201 0.427379 -0.446490
2.890000 -27.416942 -177.547301 -0.000000 0.166395 0.234217 -0.185243 -8.665904 565.865392 -0.000000 0.452430 0.420470 -0.446720
2.895000 -38.596478 -181.054123 -0.000000 0.161575 0.240333 -0.185382 -17.272358 577.718169 -0.000000 0.456803 0.413203 -0.446811
2.900000 -48.493832 -181.981823 -0.000000 0.156846 0.246760 -0.185705 -26.263131 589.688868 -0.000000 0.460689 0.405921 -0.446749
2.905000 -56.671282 -180.348721 -0.000000 0.152543 0.253370 -0.185649 -35.147831 602.351778 -0.000000 0.464329 0.398443 -0.446866
2.910000 -62.943184 -176.323527 -0.000000 0.147733 0.260166 -0.186987 -42.939218 616.205588 -0.000000 0.467707 0.390823 -0.446971
2.915000 -66.738765 -170.422469 -0.000000 0.144057 0.267137 -0.187239 -50.632833 631.453224 -0.000000 0.470730 0.382986 -0.447032
2.920000 -68.319623 -163.018055 -0.000000 0.140944 0.274470 -0.187124 -57.125559 648.255120 -0.000000 0.473494 0.375068 -0.446986
2.925000 -67.769551 -154.616936 -0.000000 0.138162 0.281950 -0.187121 -62.757525 666.508010 -0.000000 0.475909 0.367104 -0.446900
